<svg width="82" height="32" viewBox="0 0 82 32" fill="none" xmlns="http://www.w3.org/2000/svg">
<path d="M23.916 3.91018H24.11C24.16 4.63318 24.256 5.35118 24.401 6.06018C24.487 6.55818 24.287 7.50218 24.079 7.77218C24.134 8.00118 24.139 8.23918 24.091 8.46918C23.223 12.8282 20.159 15.4142 17.434 17.8542C16.197 18.9632 14.862 20.2002 13.379 21.0152C13.8 21.9652 14.643 22.7162 15.191 23.5452C15.695 24.3072 16.221 24.9852 16.774 25.7002L17.023 25.8272C17.29 26.1702 17.509 26.5732 17.851 26.8422C17.79 26.9422 17.739 27.0482 17.699 27.1592H17.762C17.796 27.0872 17.859 26.8612 17.902 27.0322H17.967V27.0952C18.005 27.1922 17.967 27.0952 17.952 27.2852H18.146C18.032 27.9012 18.196 27.7892 18.401 28.1722C18.401 28.1722 18.239 28.8052 18.285 28.8702V28.9352L18.42 28.8702C18.46 28.7602 18.51 28.6532 18.574 28.5542V28.6172C18.774 28.9172 18.559 29.9152 18.344 29.9492C18.283 29.8992 18.329 29.9262 18.22 29.8862C18.2328 29.7577 18.2206 29.628 18.184 29.5042H18.121C18.051 29.7152 18.144 29.6012 17.975 29.6962V29.6312C17.815 29.4502 17.825 29.2832 17.554 29.1882V29.3152C17.689 29.4662 17.624 29.3352 17.6 29.5682H17.729C17.799 29.5172 17.748 29.5462 17.864 29.5042C17.798 29.8272 18.214 30.3012 18.11 30.5202C18.04 30.5702 18.091 30.5412 17.975 30.5832L17.99 30.3912C17.623 30.4212 17.78 30.3772 17.548 30.2652C17.44 30.2122 17.488 30.3492 17.474 30.3922L17.284 30.3282L17.269 30.5202C17.413 30.6042 17.381 30.5962 17.389 30.6472C17.3517 30.7101 17.3021 30.7648 17.2432 30.8081C17.1842 30.8514 17.1172 30.8824 17.046 30.8992V30.9632C17.256 31.0092 17.256 31.0662 17.419 31.1532C17.394 31.2182 17.366 31.2812 17.341 31.3442C17.1947 31.4476 17.0361 31.5326 16.869 31.5972V31.5342C16.827 31.4662 16.835 31.4742 16.819 31.3442C16.736 31.2792 16.842 31.3022 16.899 31.1522C16.833 31.0952 16.899 31.1522 16.839 31.0892C16.652 31.2032 16.578 31.1992 16.437 31.2812C16.382 31.3482 16.393 31.3402 16.357 31.4712H16.681C16.7123 31.5735 16.7258 31.6803 16.721 31.7872H16.591C16.302 31.5612 15.722 31.5252 15.651 31.4072C15.505 31.2752 15.631 31.2962 15.541 31.1522C15.28 31.3082 15.172 31.1022 14.968 31.0262V31.1522C15.101 31.2582 15.084 31.3342 15.271 31.4072C15.379 31.5112 15.425 31.5172 15.649 31.5342C15.615 31.6642 15.625 31.6562 15.571 31.7242C15.3446 31.5568 15.0917 31.4283 14.823 31.3442L14.81 31.5342C15.052 31.6562 15.219 31.7952 15.493 31.9142V31.9782H15.43C15.0727 31.9514 14.7264 31.8426 14.418 31.6602C14.588 31.5682 14.49 31.6752 14.561 31.4702H14.433C14.302 31.6262 14.433 31.6672 14.154 31.7232C14.1079 31.5799 14.0302 31.4487 13.9267 31.3393C13.8232 31.23 13.6965 31.1452 13.556 31.0912C13.556 31.2792 13.676 31.2212 13.472 31.3462C13.177 30.7942 12.565 30.5162 12.146 30.0822C11.5743 29.4764 11.0614 28.8178 10.614 28.1152C10.544 28.0082 10.321 27.9722 10.245 27.8622C10.115 27.6752 10.091 27.4922 9.965 27.2922L9.543 26.9102C9.163 26.3432 8.055 24.3112 7.56 24.0562V24.1202C7.318 24.4482 7.41 24.9352 7.27 25.3842C6.90714 26.6083 6.63968 27.8587 6.47 29.1242H6.17V29.1882C6.279 29.2882 6.256 29.2452 6.279 29.4432C5.952 29.5932 6.116 29.9052 5.719 30.0132L5.695 30.3302H5.63C5.569 30.2802 5.615 30.3072 5.505 30.2672L5.455 30.0772C5.51208 30.068 5.56636 30.046 5.61379 30.0129C5.66123 29.9799 5.7006 29.9366 5.729 29.8862H5.535C5.461 30.0162 5.381 30.2502 5.242 30.3302C5.204 30.1202 5.282 30.2332 5.128 30.1402C5.328 30.8302 4.635 31.5002 4.108 31.6622V31.5342C4.16272 31.4986 4.20958 31.4523 4.2457 31.3979C4.28181 31.3436 4.30642 31.2824 4.318 31.2182C4.253 31.1612 4.318 31.2182 4.26 31.1542C4.049 31.2772 4.026 31.2182 3.733 31.2812L3.743 31.1542C3.84131 31.0697 3.91433 30.9596 3.954 30.8362C3.889 30.7792 3.954 30.8362 3.895 30.7732H3.765C3.738 31.0232 3.66 31.2662 3.537 31.4852C3.472 31.4282 3.537 31.4852 3.477 31.4222C3.402 31.2702 3.457 31.1522 3.381 30.9802H3.252C3.25778 31.1962 3.22003 31.4111 3.141 31.6122L3.006 31.6772V31.6122C2.943 31.4942 2.986 31.1592 2.922 31.0422C2.799 31.1192 2.808 31.0422 2.722 31.1062H2.658C2.732 31.2012 2.788 31.3082 2.827 31.4222C2.673 31.3992 2.73 31.3822 2.567 31.4222C2.656 31.5802 2.749 31.5822 2.675 31.7402C2.601 31.7872 2.61 31.7782 2.465 31.8042C2.407 31.5542 2.465 31.3212 2.188 31.1712C2.127 31.1212 2.173 31.1482 2.064 31.1082V31.2352C2.163 31.3192 2.134 31.2752 2.178 31.4252H2.114C2.041 31.3742 2.009 31.3752 1.859 31.3612C1.663 31.0012 1.406 30.6592 1.299 30.2192C1.41997 30.1725 1.51912 30.0822 1.577 29.9662L1.762 30.0922C1.72911 29.9918 1.67425 29.9001 1.60142 29.8236C1.52859 29.7472 1.43963 29.6879 1.341 29.6502C1.23394 29.7019 1.12251 29.7441 1.008 29.7762V29.9032C1.13344 29.9801 1.23599 30.0892 1.305 30.2192C1.10828 30.2256 0.912351 30.2473 0.719 30.2842L0.669 30.0922C0.806 30.0692 0.795 30.0772 0.869 30.0292C0.659 29.9572 0.659 29.9572 0.633 29.7132H0.892C0.955547 29.591 1.00841 29.4635 1.05 29.3322H0.921C0.825 29.5302 0.711 29.5422 0.589 29.4582C0.544 29.3902 0.553 29.3982 0.538 29.2682C0.748 29.2162 0.635 29.3002 0.748 29.1422H0.684V29.0792H0.618C0.551 29.1192 0.595 29.2162 0.548 29.1422C0.502 29.0682 0.515 29.0812 0.5 28.9522C0.749 28.6152 0.418 28.2572 0.595 27.6882C0.928 26.6112 0.816 25.8902 1.135 24.8342C1.807 22.6002 2.414 19.0282 3.566 16.5922L3.615 15.9592L3.825 15.8332C3.92 15.6392 3.883 15.2792 3.942 15.1352C4.032 15.1962 4.066 15.3612 4.127 15.2622H4.19C3.798 14.6302 4.63 13.5572 4.692 12.9162C4.639 12.8092 5.307 11.0662 5.436 10.7602C5.693 10.1512 5.805 9.56718 6.083 9.04718C6.283 8.67618 6.167 8.07318 6.378 7.71718C6.66 7.23718 7.284 5.46218 7.444 4.73518L7.569 4.80018V4.73518C7.493 4.52518 8.157 3.66518 8.27 3.15018C8.498 3.16318 8.63 3.23718 8.654 3.21318C8.778 3.11418 8.747 3.15918 8.801 2.96018H8.673C8.603 3.01118 8.653 2.98418 8.538 3.02418V2.89718H8.732L8.825 2.51618H9.084C9.118 2.38318 9.109 2.39418 9.162 2.32418C9.954 1.62918 10.905 0.893182 12.283 1.24718C12.799 1.04718 13.276 0.625182 13.758 0.423182C14.112 0.278182 14.254 0.501182 14.601 0.423182C14.768 0.385182 14.989 0.195182 15.136 0.170182C15.347 0.132182 15.373 0.380182 15.644 0.297182C15.974 0.200182 16.369 0.0611818 16.629 0.105182C17.712 0.295182 18.801 -0.196818 19.857 0.170182C20.323 0.332182 20.504 0.682182 20.833 0.931182C21.122 1.14118 21.666 1.03418 21.973 1.24718C22.197 1.40318 22.285 1.79318 22.503 1.94518L22.7 1.88118C22.753 1.92818 22.683 2.09218 22.747 2.13618C22.81 2.18118 23.168 2.14718 23.32 2.26318C23.396 2.32218 23.396 2.42918 23.558 2.51618C23.632 3.00018 23.878 3.34918 23.916 3.91018ZM1.025 27.9372C1.13 28.0222 1.12 28.0472 1.215 28.0012H1.278V27.9372H1.025ZM1.147 30.6012H0.822L0.833 30.4752C0.960087 30.4426 1.07633 30.377 1.17 30.2852L1.147 30.6012ZM1.099 29.5242L1.088 29.6512H1.153V29.5242H1.1H1.099ZM1.077 30.6642C1.16415 30.6722 1.24952 30.6938 1.33 30.7282L1.32 30.8542H1.126V30.7912C1.084 30.7232 1.111 30.7712 1.077 30.6622V30.6642ZM1.204 29.8402C1.29142 29.8466 1.37703 29.8683 1.457 29.9042V30.0302H1.189L1.204 29.8402ZM1.687 30.2852V30.4122C1.787 30.3332 1.758 30.3822 1.687 30.2822V30.2852ZM1.792 30.6012V30.7282H1.92V30.6642L1.792 30.6012ZM1.929 29.6512C1.90272 29.7783 1.91526 29.9103 1.965 30.0302C1.99182 29.9025 1.97927 29.7696 1.929 29.6492V29.6512ZM2.11 30.6642V30.7912H2.239L2.249 30.6642H2.11ZM2.403 30.2202V30.3482H2.466C2.426 30.2342 2.449 30.2832 2.403 30.2182V30.2202ZM3.383 18.1102L3.373 18.2372H3.438V18.1102H3.383ZM2.504 30.6002C2.485 30.7822 2.434 30.6882 2.489 30.7892C2.561 30.8392 2.595 30.8392 2.742 30.8522V30.7892C2.66878 30.7186 2.5891 30.6559 2.504 30.6002ZM2.831 30.5362C2.907 30.7702 2.818 30.8362 3.061 30.9172V30.8522C3.014 30.7782 3.018 30.7472 3.014 30.5992L2.831 30.5362ZM3.128 31.7412C3.058 31.9522 3.153 31.8382 2.985 31.9312V31.8682C2.938 31.8022 2.964 31.8512 2.93 31.7412H3.128ZM3.368 30.2832C3.30223 30.4659 3.26611 30.658 3.261 30.8522C3.326 30.9112 3.261 30.8522 3.32 30.9172H3.448L3.469 30.6622C3.547 30.5382 3.478 30.3992 3.369 30.2822L3.368 30.2832ZM3.973 29.9652C4.076 30.0362 4.034 30.0782 4.103 29.9652H3.973ZM3.933 31.3602C4.091 31.4532 4.007 31.3472 4.049 31.5502C3.992 31.6152 4.024 31.5692 3.973 31.6782C3.908 31.6192 3.973 31.6782 3.914 31.6152C3.855 31.5522 3.894 31.5952 3.859 31.4862C3.916 31.4232 3.883 31.4702 3.933 31.3602ZM4.315 30.6002V30.7262H4.443V30.6622L4.315 30.6002ZM4.285 30.9802V31.1072H4.35C4.308 30.9952 4.331 31.0462 4.285 30.9802ZM4.523 30.4102V30.5362H4.589V30.4092L4.523 30.4102ZM4.772 30.5362C4.698 30.7362 4.599 30.9342 4.53 31.1682H4.658V31.0422C4.72136 30.9763 4.76548 30.8943 4.78558 30.8051C4.80567 30.7159 4.80098 30.6229 4.772 30.5362ZM5.432 30.3462C5.495 30.4702 5.461 30.4602 5.412 30.5992H5.35V30.4732C5.416 30.4072 5.384 30.4662 5.435 30.3462H5.432ZM5.931 28.8882V29.0142H5.996V28.8882H5.931ZM5.91 29.1412C5.91136 29.2281 5.92689 29.3143 5.956 29.3962C6.013 29.3302 5.982 29.3762 6.03 29.2672H6.095C6.165 29.2042 6.036 29.2062 6.036 29.2042C5.973 29.1542 6.02 29.1832 5.91 29.1412ZM8.875 2.76218V2.88918H8.94V2.76218H8.875ZM10.25 1.68318L10.24 1.81018H10.434V1.68318H10.25ZM9.306 15.8882V16.0142H9.371V15.8882H9.306ZM9.384 15.6982V15.8252H9.439V15.6982H9.384ZM9.86 16.2042H10.12C10.387 15.7592 11.694 15.1502 12.166 14.8112C13.194 14.0462 14.12 13.1252 15.131 12.3372C15.489 12.0572 15.736 11.5802 16.113 11.3232L16.128 11.1332C16.263 11.1082 16.255 11.1162 16.326 11.0702C17.287 10.0542 18.474 7.89618 18.044 6.31318C17.532 6.35618 16.8 5.92618 15.989 6.12318C15.314 6.28818 14.935 6.67818 14.257 6.82118C14.204 6.62518 14.208 6.63618 14.017 6.56618C13.806 6.84518 13.041 7.01618 12.933 7.19918C12.389 7.88918 12.431 8.87418 12.029 9.81218C11.976 9.93218 11.78 10.0882 11.74 10.1922C11.755 10.2972 11.768 10.4022 11.782 10.5092C11.4445 11.5088 11.0891 12.5023 10.716 13.4892L10.604 14.1222C10.351 14.7182 9.947 15.4892 9.86 16.2042ZM11.218 10.2442L11.133 10.4992H11.199V10.3702C11.239 10.3262 11.293 10.3702 11.272 10.2442H11.218ZM13.535 0.859182C13.598 0.912182 13.552 0.882182 13.659 0.923182C13.606 0.872182 13.653 0.901182 13.543 0.859182H13.535ZM13.865 31.5512H13.996V31.6142H13.864L13.866 31.5512H13.865ZM14.709 30.7902C14.787 30.8932 14.745 30.8602 14.892 30.9162V30.8532L14.709 30.7902ZM15.809 31.6142L15.999 31.6772V31.7402H15.929V31.8042C15.864 31.7472 15.929 31.8042 15.868 31.7402C15.807 31.6772 15.842 31.7302 15.808 31.6142H15.809ZM16.182 31.0432C16.242 31.0952 16.199 31.0662 16.306 31.1062C16.239 31.0562 16.286 31.0852 16.182 31.0432ZM16.952 30.2822C16.882 30.4212 16.888 30.3752 16.808 30.4742H16.936C17.025 30.2972 17.063 30.4242 16.945 30.2822H16.952ZM17.04 29.9662L17.029 30.0922H17.223V29.9662H17.04ZM19.406 0.290182V0.417182C19.506 0.341182 19.478 0.391182 19.406 0.290182ZM19.659 0.353182V0.480182H19.725V0.353182H19.659ZM19.869 0.861182C19.933 0.912182 19.887 0.882182 19.996 0.925182C19.942 0.874182 19.988 0.901182 19.878 0.861182H19.87H19.869ZM17.782 30.2202V30.3462H17.848C17.814 30.2362 17.838 30.2862 17.791 30.2202H17.782ZM20.06 0.925182V1.05118H20.254V0.988182L20.06 0.925182ZM18.12 27.5572H18.25C18.165 27.6582 18.216 27.6332 18.12 27.5572ZM17.948 29.8332C17.994 29.8962 17.969 29.8502 18.003 29.9602H17.937L17.948 29.8332ZM18.133 29.0732L18.11 29.3882H18.176C18.3 29.3342 18.226 29.3582 18.369 29.3882L18.384 29.1982C18.2946 29.1723 18.2101 29.1317 18.134 29.0782V29.0722L18.133 29.0732ZM18.193 30.0232H18.321C18.237 30.1302 18.289 30.1072 18.192 30.0292V30.0232H18.193ZM22.599 2.50918C22.696 2.64418 22.769 2.70118 22.844 2.69918C22.9 2.63618 22.869 2.68218 22.917 2.57318H22.789C22.715 2.52618 22.729 2.53518 22.599 2.50918ZM23.508 8.46918C23.48 8.53518 23.453 8.59618 23.428 8.66118H23.621V8.59618C23.573 8.54718 23.558 8.51818 23.508 8.46918ZM23.59 8.21718V8.34318H23.653V8.21718H23.59ZM23.83 6.75818C23.7977 6.90651 23.8088 7.061 23.862 7.20318C23.8944 7.05486 23.8833 6.90034 23.83 6.75818ZM23.855 7.26618V7.39318H23.918L23.929 7.26618H23.855ZM23.824 7.70918C23.836 7.84118 23.824 7.83118 23.872 7.90018V7.83518C23.929 7.77218 23.895 7.81818 23.946 7.70918H23.824Z" fill="#14004B"/>
<path d="M27.9829 30.676L27.9679 30.866H27.9029C27.6929 30.805 27.4409 31.178 26.9839 31.056C26.4602 30.9019 25.9554 30.6895 25.4789 30.423C25.0809 30.213 24.5519 30.213 24.1519 30.043C24.1869 29.89 24.1999 29.945 24.1709 29.789C24.0739 29.747 23.9429 29.626 23.8629 29.599L23.5969 29.662C23.4169 29.578 23.4619 29.207 23.3189 29.092C22.8979 28.756 22.6089 29.207 22.4019 28.394C22.5369 28.37 22.5269 28.379 22.5999 28.33C22.2339 28.257 22.1979 27.856 21.9469 27.57C21.9979 27.449 22.0289 27.32 22.0399 27.19H21.8459C21.4599 26.387 21.3089 25.245 21.1529 24.4C21.0729 23.978 21.3229 23.378 21.2519 23.068C20.8069 21.125 21.8269 17.15 22.4779 15.395C22.5939 15.085 22.7609 14.885 22.8599 14.634C22.8979 14.424 22.9329 14.212 22.9709 14.002C23.0369 13.886 23.2539 13.751 23.3229 13.622C23.4409 13.412 23.3699 13.224 23.4999 12.99C23.7109 12.602 24.1539 12.113 24.3729 11.725C24.6909 11.161 24.7939 10.37 25.3969 10.141C25.5169 10.065 25.5109 10.141 25.6069 10.077C25.6805 10.0098 25.732 9.92195 25.7549 9.82499C25.7659 9.75099 25.7429 9.74499 25.7089 9.56999C25.9299 9.42599 25.9749 9.27699 26.1309 9.06399C26.5829 8.62699 27.0669 8.22399 27.5779 7.85799C28.2299 7.40299 29.0539 7.00499 29.6229 6.46299C29.6769 6.50899 29.6899 6.54299 29.7429 6.59199C29.8929 6.12599 31.6729 5.43199 32.0379 5.32699C32.2979 5.24899 32.5079 5.47299 32.6149 5.38999H32.6779C32.6129 5.29099 32.6129 5.33799 32.5649 5.19999C33.8149 5.29099 35.5569 4.65699 37.0789 5.32699C37.6159 5.56299 38.0339 6.08599 38.4849 6.40699C38.6249 6.50499 38.7949 6.48999 38.9229 6.59599C39.1039 6.74599 39.0849 6.97299 39.2129 7.03799C39.2929 6.98799 39.3259 6.98999 39.4769 6.97799C39.5409 7.14399 39.7259 7.24899 39.7659 7.41999L39.6689 7.86499C39.7129 8.01499 39.8629 7.98699 39.8989 8.24399C39.7409 8.34699 39.7389 8.33699 39.6879 8.56199C39.8019 8.65699 39.7849 8.73699 39.9279 8.81499C39.9779 8.75999 40.0149 8.74299 40.0679 8.68899C39.986 8.62287 39.9252 8.53423 39.8929 8.43399H40.0859C40.1469 8.59599 40.1779 8.76799 40.1769 8.94199C40.2499 9.14499 40.2569 9.36699 40.1939 9.57399L39.9959 9.63699C39.9679 9.78899 40.0989 9.78899 40.0949 10.018H40.0319V10.082H39.9029C39.8524 9.9704 39.7765 9.87211 39.6814 9.79488C39.5863 9.71764 39.4745 9.66359 39.3549 9.63699V9.69999C39.4899 9.86999 39.3249 9.85599 39.3949 10.018L39.7599 10.335C39.8079 10.465 39.6579 11.079 39.7469 11.35C39.8359 11.622 40.1139 11.94 40.1959 12.238L40.1689 12.617C40.2939 13.286 40.3289 13.968 40.2739 14.647C40.2489 14.973 40.1239 15.359 40.1369 15.597C40.1979 16.84 39.4469 18.533 38.9399 19.467C38.7539 19.803 38.8529 20.113 38.6739 20.417C38.3069 21.007 37.9739 21.617 37.6779 22.247C37.1399 23.42 35.9919 24.611 35.2239 25.605C35.0869 25.785 35.0739 26.01 34.9229 26.177C34.4129 26.737 33.9769 27.106 33.5189 27.635C33.0619 28.164 33.0519 28.623 32.3249 28.899V29.028C32.5349 29.028 32.4189 28.92 32.5149 29.091H32.4489C31.9659 29.477 31.5089 30.023 30.8739 30.231C30.3439 30.406 30.0509 30.198 29.5719 30.358C29.3069 30.448 28.9399 30.83 28.6929 30.866C28.4469 30.902 28.3559 30.714 27.9829 30.676ZM22.1119 17.675C22.1749 17.728 22.1289 17.698 22.2359 17.74C22.1749 17.694 22.2209 17.723 22.1119 17.681V17.675ZM21.7619 22.311V22.438H21.8249C21.7849 22.326 21.8099 22.377 21.7619 22.311ZM22.2379 27.131V27.258H22.4319V27.194L22.2379 27.131ZM22.8699 28.271L22.8509 28.526H22.9799V28.398C22.9249 28.358 22.9249 28.318 22.8639 28.271H22.8699ZM23.7239 29.793H23.8539V29.922H23.7259L23.7239 29.793ZM28.3839 24.593L28.3979 24.404C28.8199 24.427 29.1649 24.427 29.3229 24.151C29.1289 24.174 29.1799 24.278 29.0679 24.088C29.2199 23.947 29.1569 23.896 29.4119 23.833C29.4459 23.703 29.4369 23.713 29.4899 23.643C29.6999 23.449 29.9639 23.433 30.1119 23.135C29.9769 22.985 30.0419 23.115 30.0649 22.883C30.3159 22.661 30.3939 22.512 30.7499 22.375L30.7039 22.122H30.8979L30.9179 21.869C31.2009 21.736 30.9859 21.631 31.2829 21.298C31.3829 21.186 31.5829 21.146 31.6899 21.045C31.7979 20.944 32.0459 20.202 32.2299 19.903C32.4999 19.458 32.9249 18.861 33.1869 18.381C33.2239 18.149 33.2639 17.915 33.3019 17.683C33.5469 17.119 33.7819 16.488 33.9349 16.099C34.1205 15.5258 34.1658 14.9164 34.0669 14.322C34.0169 14.112 33.8969 13.704 33.9919 13.624C33.5219 13.129 33.0319 12.977 32.5159 12.484L32.5919 12.358C32.7719 12.438 32.9659 12.481 33.1629 12.484C33.1439 12.164 33.1889 12.41 33.2519 12.166H33.1889V12.103C32.8989 12.069 32.5439 12.021 32.3709 11.787C32.4979 11.744 32.6309 11.723 32.7649 11.723C33.0919 11.857 33.4289 11.963 33.7749 12.039H33.8399V11.976C33.7007 11.9647 33.5687 11.9094 33.463 11.8181C33.3572 11.7267 33.2833 11.6041 33.2519 11.468C32.1559 11.468 31.5889 12.223 30.8979 12.674C29.9429 13.306 29.5869 14.149 29.0239 15.203C27.8709 17.376 26.5229 21.835 27.6189 24.398C27.8779 24.436 28.1329 24.499 28.3789 24.588L28.3839 24.593ZM26.6509 30.427C26.7439 30.575 26.7329 30.577 26.9589 30.619V30.491C26.8582 30.4535 26.7523 30.4319 26.6449 30.427H26.6509ZM27.2829 30.682L27.2049 30.872H27.5279C27.5642 30.8201 27.6117 30.777 27.6669 30.746V30.682H27.2829ZM28.2399 30.872H28.3689V30.935H28.2389L28.2399 30.872ZM31.9389 28.975L31.9289 29.102H31.9869C31.9489 28.99 31.9729 29.036 31.9269 28.972L31.9389 28.975ZM33.7089 11.535C33.7719 11.588 33.7259 11.559 33.8329 11.601C33.7599 11.544 33.8059 11.574 33.6969 11.531L33.7089 11.535ZM33.6729 13.498C33.7199 13.563 33.6939 13.517 33.7279 13.624H33.6729V13.498ZM33.9159 11.152C33.9959 11.256 33.9519 11.224 34.0989 11.279V11.215L33.9159 11.152ZM33.8929 12.295C33.8944 12.3809 33.9099 12.4661 33.9389 12.547H34.0039V12.421C33.9639 12.372 33.9519 12.341 33.8969 12.294H33.8919L33.8929 12.295ZM35.2749 5.12899V5.25599H35.4039L35.4139 5.12899H35.2749ZM35.7239 5.19199C35.8169 5.30799 35.7739 5.28099 35.9719 5.31899V5.25599H35.9089V5.19199H35.7239ZM35.9239 5.95299C35.9869 6.00299 35.9409 5.97599 36.0479 6.01599C35.9919 5.96599 36.0379 5.99299 35.9279 5.95299H35.9239ZM36.7879 5.63699C36.7569 5.52499 36.7879 5.57399 36.7329 5.50799V5.63699H36.7879ZM36.8349 5.88999C36.9149 5.99299 36.8699 5.95999 37.0179 6.01599V5.95299L36.8349 5.88999ZM37.8879 6.64999L37.8779 6.77699C37.9809 6.70099 37.9519 6.75099 37.8879 6.64999ZM39.1039 7.66399V7.72999H39.0389C38.9119 7.77799 39.1629 7.78999 39.1629 7.78999C39.2289 7.72299 39.1629 7.78999 39.2329 7.72999C39.1529 7.67699 39.2049 7.70399 39.0959 7.66399H39.1039ZM39.4749 8.74399C39.4479 8.83199 39.5619 8.83599 39.5949 8.86999C39.6379 8.80199 39.4839 8.75799 39.4669 8.74299L39.4749 8.74399ZM39.4369 9.25099C39.5369 9.43899 39.6229 9.58599 39.7469 9.44099C39.5529 9.37399 39.5949 9.32499 39.4289 9.25099H39.4369ZM39.9519 10.139C39.9979 10.259 39.9789 10.185 39.9389 10.329H39.8729V10.265H39.8079V10.202C39.9259 10.162 39.8739 10.189 39.9429 10.139H39.9519ZM39.8739 12.035V12.164H39.9389L39.9489 12.035H39.8739ZM39.8169 14.509L39.7369 14.699H39.8649C39.8439 14.573 39.8499 14.581 39.8079 14.514L39.8169 14.509ZM39.6799 15.46L39.7299 15.652H39.7929V15.586H39.8589V15.523H39.7949C39.7319 15.477 39.7849 15.503 39.6709 15.464L39.6799 15.46ZM39.9769 13.24L39.9669 13.367H40.0319V13.241H39.9769V13.24ZM73.9999 6.51399L74.0359 6.13399C73.8509 6.22299 73.826 6.31999 73.7999 6.57299C73.6699 6.54499 73.6779 6.55599 73.6129 6.50499C73.5599 6.38899 73.6129 6.39099 73.6439 6.18899C73.5243 6.20154 73.4094 6.2427 73.3089 6.30899C73.2924 6.24529 73.277 6.18128 73.2629 6.11699C73.4289 6.04299 73.6079 6.00399 73.7899 6.00099C73.8036 5.87334 73.7941 5.74428 73.7619 5.61999C73.7519 5.55899 73.7769 5.57599 73.5749 5.55299C73.5539 5.32699 73.5179 5.26799 73.6819 5.10999C73.6019 4.94999 73.7049 5.03599 73.5009 4.97999C73.5009 4.75399 73.5489 4.81999 73.3949 4.72399C73.2899 4.67399 73.0329 4.81399 72.8619 4.90399L72.8429 5.09399C72.6129 5.14199 72.6089 5.18199 72.4959 5.33999C72.3879 5.29699 72.4349 5.32699 72.3729 5.27399C72.2759 5.21999 72.449 5.17699 72.521 5.08699H72.4509V5.02399C72.4129 4.96699 72.3169 5.14199 72.3109 5.14799H72.2449C72.3919 4.91199 72.5289 4.77899 72.4299 4.57799V4.51599C72.3899 4.45899 72.2949 4.63399 72.2899 4.63999H72.1579L72.2719 4.13399C72.3219 4.16597 72.3625 4.21044 72.3899 4.26299H72.4539C72.354 3.82599 72.0429 3.84099 71.8209 3.54999C71.5329 3.86199 71.4149 4.79399 71.4809 5.06799L71.2809 5.12699C71.2367 5.01565 71.1825 4.90854 71.1189 4.80699C71.0589 4.75399 71.1049 4.78299 70.9949 4.74099V4.80399H70.9299C70.9878 4.95714 71.0868 5.09139 71.216 5.19199L71.2039 5.31899C71.0309 5.20597 70.8436 5.11652 70.6469 5.05299C70.7049 4.82399 70.7489 4.59199 70.7779 4.35799C70.6994 4.32007 70.6148 4.29637 70.5279 4.28799C70.5559 4.16097 70.5462 4.02856 70.4999 3.90699C70.4679 3.80999 70.2899 3.71299 70.1419 3.58199V3.51899C70.0379 3.73899 69.9719 3.97299 69.9459 4.21399C69.8985 4.09269 69.8888 3.95992 69.9179 3.83299H69.7239C69.6059 4.15099 69.3759 4.28999 69.2579 4.64799C69.373 4.78799 69.5169 4.89799 69.6799 4.97499C69.4699 5.06999 69.3469 4.88899 69.1829 4.77499C69.0349 4.98499 68.959 5.02499 68.7719 5.01899C68.8419 5.17499 68.7359 5.06399 68.8879 5.14999C68.8636 5.24721 68.8098 5.33453 68.7339 5.39999C68.6809 5.44299 68.5819 5.47999 68.5229 5.52299H68.4579C68.4829 5.48099 68.5079 5.43899 68.5359 5.39699H68.4699V5.33299C68.2761 5.5703 68.1006 5.82202 67.9449 6.08599L67.8719 6.84599C67.695 7.08499 67.1759 8.05599 67.1069 8.74299H66.9149C67.0079 9.35899 65.8989 11.116 65.5239 11.763C65.2519 12.231 65.1429 12.661 64.8729 13.148C64.3749 14.048 61.0499 21.54 60.3539 21.999C60.4319 22.159 60.3309 22.073 60.5359 22.13V22.193C60.4206 22.2239 60.3082 22.2647 60.1999 22.315H60.1349C60.0949 22.44 60.1559 22.398 60.1879 22.444C60.0909 22.584 60.0069 22.574 59.8459 22.627C59.7979 22.823 59.7919 22.779 59.8169 22.943C59.7283 22.9128 59.645 22.869 59.5699 22.813L59.5319 23.023C59.3719 23.168 59.1999 23.3 59.0199 23.42C58.9649 23.209 58.9209 22.998 58.8749 22.787L58.8879 22.648C58.8879 18.95 59.5979 13.622 60.5499 10.967C60.6519 10.684 60.5499 10.423 60.6769 10.124L61.3199 8.74699C61.4599 8.44199 61.1949 8.50099 61.3799 8.29899C61.3799 8.01399 61.4329 7.52499 61.3129 7.35699V7.28299C61.0769 7.42799 60.9509 7.86299 60.8629 8.13799H60.7969V8.20199H60.7339C60.7719 7.71899 60.9869 7.45199 60.8579 7.11599L61.0519 7.03799C60.9919 6.70099 60.8749 6.83999 60.7909 6.55099C60.7359 6.41699 60.7399 6.48599 60.8539 6.35799C60.7989 6.09799 60.8389 6.16799 60.6599 6.18299V5.92999C60.5668 5.93138 60.4763 5.96064 60.3999 6.01399C60.0719 6.06899 60.1079 6.11499 60.0129 6.35999L59.8189 6.37399C59.8589 6.21399 59.9239 6.05899 60.0109 5.91699V5.66399H59.8809C59.8313 5.87464 59.7439 6.07454 59.6229 6.25399V6.31799H59.5579C59.6169 6.11899 59.7139 6.10699 59.6209 5.93399V5.80699L59.4269 5.82199V6.01199H59.3619V5.94899H59.2959C59.3599 5.74899 59.4479 5.61599 59.4249 5.49599C59.3849 5.15999 59.2689 5.18599 59.0979 5.01599L58.7739 5.03799L58.7109 5.17099C58.6029 5.42399 58.6489 5.59299 58.5189 5.81799C58.4429 5.94199 58.1689 6.09599 58.1309 6.22699L58.1959 6.40999H58.1309V6.47299L57.9369 6.48799C58.018 6.17121 58.1511 5.8701 58.3309 5.59699V5.21699C58.2279 5.30999 58.2549 5.26199 58.2029 5.41599C58.0299 5.35399 58.0679 5.30399 57.8779 5.25099C57.8157 5.45704 57.7294 5.65507 57.6209 5.84099V5.90399H57.4909V5.39999C57.4409 5.30899 57.3549 5.36999 57.2959 5.22699C57.1189 5.32599 57.1319 5.32599 57.1019 5.55599C57.0404 5.49394 56.9753 5.4355 56.9069 5.38099C56.7609 5.68299 56.5889 5.97099 56.3919 6.24299V6.36899C56.3399 6.29899 56.3399 6.26799 56.3269 6.12299C56.1419 6.14299 56.2319 6.17299 56.1329 6.13699C55.9669 6.23699 55.9599 6.30599 55.9389 6.53099C55.8059 6.51499 55.8149 6.53099 55.7449 6.48299H55.6799C55.7199 6.67699 55.6929 6.63699 55.8099 6.72499C55.7159 6.88999 55.7829 6.82899 55.5509 6.87299C55.6189 6.91899 55.5679 6.89299 55.6819 6.92499C55.5339 7.34699 55.2039 7.76799 55.0389 8.17499C54.6699 9.07699 54.5269 9.87399 54.1409 10.774C53.6569 11.905 53.0269 13.157 52.4709 14.254C52.0759 15.031 51.6879 16.361 51.0559 16.89C51.0893 16.9566 51.1332 17.0174 51.1859 17.07C51.1209 17.12 50.9279 17.172 50.8619 17.22C50.7759 17.366 50.8429 17.4 50.8619 17.537C50.7759 17.691 50.5059 17.695 50.4089 17.825C50.1419 18.188 49.9999 18.625 49.6359 18.896V19.149C49.3359 19.221 49.2789 19.318 49.2479 19.621C49.0249 19.682 48.3559 20.464 48.2779 20.643C48.3019 20.704 48.3229 20.765 48.3459 20.829C48.1359 21.197 47.5789 21.168 47.6359 21.642C47.5239 21.608 47.5719 21.642 47.5049 21.587C47.4629 21.644 47.4189 21.798 47.3759 21.851V21.914H47.2479L47.1279 22.241C47.0029 22.3387 46.8705 22.4267 46.7319 22.504C46.6659 22.294 46.5459 22.024 46.4809 21.777L46.5039 21.688C46.4936 21.5148 46.4936 21.3412 46.5039 21.168C46.5339 20.993 46.5589 20.818 46.5269 20.805C46.6229 20.135 46.7629 19.47 46.9489 18.818C47.2989 17.33 47.3699 15.838 47.8189 14.478L47.7809 14.104C47.8509 13.8 48.0659 13.29 48.1309 13.029C48.0969 12.907 48.0609 12.786 48.0279 12.664L48.1579 12.644C48.1479 12.559 48.1389 12.477 48.1309 12.392L48.2549 12.308L48.1579 12.007C48.1919 11.935 48.4259 11.857 48.4619 11.764L48.4239 11.391C48.6509 10.801 48.9419 10.085 49.1489 9.49499C49.2389 9.23099 49.1489 9.07299 49.2789 8.83699C49.5239 8.38799 49.8929 7.94099 49.8419 7.27999L50.0359 7.24799C50.014 6.88054 50.0423 6.51181 50.1199 6.15199C50.1275 5.98174 50.0885 5.81265 50.0069 5.66299V5.60199C49.8149 5.77099 50.0169 5.96899 49.7199 6.02299C49.8089 6.27299 49.7389 6.13099 49.9299 6.17899C49.8459 6.31199 49.7619 6.31599 49.6989 6.47199C49.546 6.44246 49.3907 6.4264 49.2349 6.42399C49.2649 6.30799 49.2349 6.36099 49.2849 6.28699C49.4189 6.25099 49.3349 6.22199 49.4229 6.32899C49.7749 6.03199 49.3929 5.59099 49.6329 5.27499C49.3869 4.80699 49.2129 4.96999 49.2819 4.37999L49.2159 4.39199C48.9209 4.30999 48.7439 4.71499 48.5459 4.88499C48.6459 5.06199 48.5819 5.02699 48.8219 5.03099V5.09199L48.7569 5.10199L48.7699 5.22899L48.7059 5.23899V5.17599C48.5491 5.18313 48.3921 5.16695 48.2399 5.12799C48.2829 4.96999 48.2549 5.01999 48.3519 4.91699V4.85399C48.2619 4.89799 48.1789 4.95399 48.1059 5.02199C48.0399 4.82199 48.1059 4.84499 48.1259 4.57399L47.9329 4.60699C47.9158 4.78525 47.8422 4.95339 47.7229 5.08699V5.15099L47.6569 5.16099C47.6513 4.99316 47.6791 4.82588 47.7389 4.66894C47.7986 4.512 47.8891 4.36855 48.0049 4.24699L47.9669 3.87199L47.8379 3.89199L47.8629 4.14199L47.6689 4.17499C47.7179 4.34399 47.7659 4.34399 47.7009 4.48699C47.6379 4.59199 47.6189 4.48699 47.5199 4.64499C47.4039 4.62499 47.4559 4.64499 47.3849 4.60499C47.3849 4.52099 47.5469 4.04199 47.5219 4.00899C47.6019 3.83999 47.5389 3.90499 47.7659 3.84199L47.7539 3.71599C47.5599 3.74099 47.5699 3.70099 47.4939 3.75999C47.3109 3.86499 47.3299 3.93499 47.1989 4.06299C47.2709 4.20299 47.2329 4.16299 47.3469 4.22999V4.29099L47.0309 4.40899C46.9819 4.71899 46.8349 4.76299 46.8409 5.13999C46.5209 5.27699 46.4489 5.63599 46.2599 5.87399V5.93499H46.1959C46.2149 5.78099 46.2429 5.62799 46.2809 5.47799L46.4739 5.44399C46.4739 5.37199 46.4619 5.31399 46.4599 5.26299L46.3599 5.33299V5.39499H46.2949C46.2949 5.30699 46.3079 5.21799 46.3349 5.13499L46.0759 5.17799L46.0629 5.05199L46.1859 4.96799V4.90599C46.2449 4.83299 46.2569 4.95699 46.2569 4.95699C46.3119 5.01699 46.3019 5.00999 46.3419 5.13399C46.4919 5.18299 46.4069 5.11699 46.4599 5.20199C46.4592 5.14277 46.4732 5.08431 46.5008 5.03191C46.5284 4.97951 46.5687 4.93485 46.6179 4.90199C46.5059 4.76299 46.5799 4.80699 46.3459 4.81999C46.4159 4.66199 46.4739 4.69999 46.5839 4.58799L46.6489 4.57799C46.5935 4.47052 46.517 4.3753 46.4239 4.29799C46.4239 4.29799 46.4109 4.17299 46.3539 4.24699V4.30999C46.2089 4.47699 46.2939 4.34799 46.3139 4.56999C46.1289 4.52999 46.0209 4.24499 45.9289 3.99999H45.8629L45.8129 4.13499C45.8269 4.18199 45.7959 4.17899 45.9529 4.23799C45.9259 4.64299 45.7679 4.31799 45.6759 4.72899L45.5469 4.75299V4.68899C45.4879 4.63499 45.5219 4.67899 45.4689 4.57599C45.6089 4.48499 45.6439 4.50199 45.7069 4.34399L45.7729 4.33399L45.7599 4.20899C45.2539 4.36899 44.9929 5.10199 44.4959 5.37399C44.4959 5.43799 44.5099 5.49899 44.5159 5.56199C44.6239 5.50199 44.5779 5.53899 44.6389 5.47799L44.8309 5.44399V5.50699L44.7059 5.59099C44.6279 5.74699 44.5499 5.75599 44.4559 5.69699C44.3187 5.85301 44.2128 6.03396 44.1439 6.22999C44.1009 6.35999 44.2569 6.41999 44.2339 6.46799C44.1959 6.55199 43.8819 6.85599 43.8269 6.98199C43.3829 7.98799 43.2289 8.97199 42.8219 10.011C41.4609 13.492 41.0219 17.99 40.2639 22.26L40.3459 23.07C40.1179 24.757 40.5379 27.027 40.9779 28.049C41.0429 28.196 41.2859 28.259 41.3379 28.369C41.3379 28.498 41.3219 28.626 41.3109 28.755C41.4125 28.9995 41.5618 29.2213 41.7499 29.4076C41.9381 29.5939 42.1614 29.7409 42.4069 29.84C42.4889 29.828 42.4429 29.876 42.5289 29.756C42.9209 29.777 42.9679 30.177 43.2439 30.336C43.3549 30.363 43.2739 30.251 43.4379 30.302C43.7749 30.281 43.9049 30.462 44.0699 30.641V30.664C44.3899 30.644 44.7129 30.682 45.0199 30.776L45.4729 30.742V30.616H45.4079V30.552C45.1339 30.565 45.2349 30.489 45.0859 30.641H44.9549L45.0179 30.381C45.2859 30.381 45.4749 30.381 45.6019 30.527C45.6879 30.487 45.6499 30.5 45.6669 30.46C45.7619 30.295 45.6499 30.386 45.8609 30.319V30.572C45.9349 30.51 46.0469 30.432 46.1179 30.361C46.1789 30.479 46.1459 30.407 46.1179 30.551C46.3039 30.529 46.2109 30.5 46.3119 30.536C46.4869 30.418 46.3779 30.536 46.3749 30.342C46.8549 30.489 46.9089 30.072 47.4119 30.074C47.4559 29.95 47.4779 29.82 47.4749 29.688C47.5274 29.7154 47.5724 29.7552 47.6059 29.804C48.0129 29.629 48.7559 28.591 49.0809 28.236C50.5249 26.715 52.0829 25.229 53.2769 23.49H53.4059C53.6549 24.02 53.8489 27.318 54.3689 27.705C54.7569 27.99 55.4229 28.144 55.6059 28.622C55.7459 28.555 55.6989 28.561 55.7999 28.481C56.3999 29.054 57.2519 29.288 58.2679 29.431C58.2809 29.4154 58.295 29.4007 58.3099 29.387C58.3199 29.387 58.3299 29.407 58.3419 29.414L58.3249 29.511C58.3537 29.4893 58.3811 29.466 58.4069 29.441H58.4279L58.5099 29.313C58.6369 29.393 58.5589 29.313 58.5299 29.556C58.7229 29.488 58.7149 29.466 58.8119 29.307C58.8539 29.377 58.8469 29.366 58.8579 29.499C59.2369 29.4598 59.6024 29.3368 59.9279 29.139C59.9539 29.294 59.9409 29.239 59.9029 29.391C60.0054 29.3493 60.0991 29.2886 60.1789 29.212H60.1939C60.2318 29.1892 60.272 29.1708 60.3139 29.157C60.2489 29.204 60.2869 29.185 60.1939 29.212H60.1789L60.1669 29.334H60.4259L60.4449 29.144L60.6259 29.275C60.9339 28.972 61.0999 28.982 61.5199 28.721C62.0929 28.365 62.6199 27.791 63.1379 27.358C63.1929 27.29 63.1849 27.298 63.2209 27.168H63.4139C63.3999 27.103 63.3829 27.039 63.3679 26.976C64.2109 26.63 65.6529 24.508 66.3439 23.604C68.4809 20.812 70.4449 14.527 72.2839 11.414C72.5339 10.993 72.6449 10.254 72.8119 9.96399C73.0159 9.64099 73.1999 9.30599 73.3619 8.95899C73.5259 8.54999 73.4249 8.29899 73.5939 7.88199C73.7639 7.51799 74.1689 6.87099 73.9999 6.51399ZM48.9819 7.07199L48.9699 6.94799L49.0979 6.92699L49.1109 7.05099L48.9819 7.07199ZM49.3169 6.12999L49.3049 6.00599L49.4329 5.98499L49.4459 6.10899L49.3169 6.12999ZM49.2689 5.62199C49.4329 5.74599 49.2819 5.75899 49.4789 5.71499L49.4989 5.90199H49.1689C49.1874 5.80399 49.2211 5.7095 49.2689 5.62199ZM49.1069 6.60199L49.1699 6.59199V6.52799C49.2289 6.58499 49.1949 6.54099 49.2479 6.64399C49.2399 6.64999 48.9839 6.67199 49.1049 6.60199H49.1069ZM49.1269 4.88399C49.2309 5.03199 49.1609 5.04199 49.0939 5.20699L49.0309 5.21699C49.034 5.09975 49.0676 4.98518 49.1269 4.88399ZM49.1089 5.70799L48.9799 5.72999L48.9609 5.54199C49.1319 5.59699 49.0309 5.51699 49.1069 5.70799H49.1089ZM48.9339 6.56399C49.0979 6.68799 48.9469 6.70099 49.1439 6.65699L49.1639 6.84399H48.8339C48.8518 6.74611 48.8848 6.65163 48.9319 6.56399H48.9339ZM48.7719 7.54399L48.8349 7.53399V7.46999C48.8939 7.52699 48.8599 7.48299 48.9129 7.58399C48.9039 7.58399 48.6489 7.61399 48.7699 7.54399H48.7719ZM48.7919 5.82399C48.8959 5.97399 48.8259 5.98399 48.7619 6.14899L48.6959 6.15899C48.6993 6.04117 48.733 5.92604 48.7919 5.82399ZM47.9859 6.27999C48.1009 6.29999 48.0509 6.27999 48.1199 6.31999H48.0569V6.38299H47.9919L47.9859 6.27999ZM48.4529 5.38599H48.3899V5.44899H48.3249L48.3119 5.32499C48.4259 5.35899 48.3839 5.33999 48.4529 5.38599ZM47.6099 12.581H47.6759V12.518C47.7349 12.575 47.7009 12.53 47.7539 12.632C47.7469 12.612 47.4919 12.642 47.6099 12.572V12.581ZM48.2759 5.28499L48.2109 5.29499V5.35899L48.1459 5.36899L48.1259 5.18199C48.3019 5.22799 48.1759 5.13899 48.2759 5.27599V5.28499ZM48.0959 5.44299C48.1359 5.48099 48.1879 5.42999 48.1729 5.55699H48.1079C48.0469 5.61699 48.0909 5.58199 47.9859 5.64099L47.9729 5.51699C48.0799 5.45999 48.0339 5.49599 48.0949 5.43399L48.0959 5.44299ZM47.4119 13.563C47.4119 13.563 47.1569 13.593 47.2769 13.523H47.3409V13.46C47.3929 13.498 47.3599 13.454 47.4119 13.555V13.563ZM47.8229 5.36099C47.8489 5.37499 47.9559 5.36099 47.9009 5.47499C47.8249 5.44899 47.6879 5.38599 47.8229 5.35199V5.36099ZM47.0649 15.597H46.9999V15.66H46.9349L46.9219 15.534C47.0449 15.569 46.9939 15.548 47.0639 15.588L47.0649 15.597ZM42.5799 27.84V27.967H42.5139V27.84H42.5799ZM42.4659 28.683C42.5205 28.7352 42.5661 28.796 42.6009 28.863C42.3859 28.765 42.4719 28.841 42.4659 28.664V28.683ZM42.6069 29.191L42.5949 29.067L42.6599 29.057L42.6729 29.181L42.6069 29.191ZM44.4369 6.25799L44.6299 6.22599C44.5249 6.28099 44.5519 6.27599 44.4359 6.23899L44.4369 6.25799ZM44.5839 6.04699C44.5539 5.98699 44.5269 5.92899 44.4999 5.87199L44.6279 5.84899L44.6479 6.03599L44.5839 6.04599V6.04699ZM44.7719 5.31699L44.9659 5.28399C44.8599 5.33899 44.8879 5.33399 44.7719 5.29899V5.31699ZM43.4559 29.48C43.3999 29.442 43.2459 29.413 43.1959 29.377C43.1449 29.341 43.1719 29.36 43.1279 29.257C43.2859 29.285 43.4399 29.335 43.5849 29.404V29.467L43.4559 29.48ZM45.0159 30.036V30.099L44.6909 30.062C44.6921 30.047 44.6921 30.032 44.6909 30.017L44.8309 29.979L45.0159 30.036ZM47.4099 4.81099H47.3449V4.87099L47.2819 4.88399L47.2689 4.75799C47.3889 4.77099 47.3389 4.75399 47.4099 4.79199V4.81099ZM47.0999 4.98999L47.2939 4.95599C47.2689 5.09899 47.2349 5.09599 47.3199 5.20599V5.26799C47.1339 5.29099 47.2199 5.24099 47.1259 5.30199L47.0599 5.31199C47.0663 5.19562 47.0797 5.07975 47.0999 4.96499V4.98999ZM47.0859 5.49999H47.0219L47.0099 5.37499C47.0689 5.42199 47.0349 5.38599 47.0859 5.48099V5.49999ZM47.0859 5.75299L47.0199 5.76299V5.82399L46.9549 5.83699L46.9419 5.71099C47.0559 5.71299 47.0029 5.69399 47.0749 5.73399L47.0859 5.75299ZM46.7759 5.93199L46.9699 5.89799C46.9439 6.04099 46.9099 6.03799 46.9949 6.14799V6.20999C46.8099 6.23299 46.8949 6.18299 46.8009 6.24399L46.7399 6.22899C46.7419 6.12299 46.7509 6.01799 46.7649 5.91299L46.7759 5.93199ZM46.7629 6.44199H46.6979L46.6849 6.31799C46.7399 6.36399 46.6999 6.31999 46.7529 6.42299L46.7629 6.44199ZM46.0659 5.67499V5.86499H45.9999C45.9767 5.804 45.9543 5.74266 45.9329 5.68099L46.0659 5.67499ZM44.5759 30.332C44.6869 30.364 44.6389 30.332 44.7039 30.385C44.5819 30.328 44.6319 30.351 44.5649 30.307L44.5759 30.332ZM44.9629 30.24L45.1569 30.288C45.1579 30.309 45.1579 30.33 45.1569 30.351C44.9949 30.281 45.0409 30.309 44.9529 30.214L44.9629 30.24ZM46.7129 30.042C46.8259 30.075 46.7779 30.042 46.8429 30.096C46.7209 30.044 46.7689 30.063 46.7029 30.016L46.7129 30.042ZM54.1459 23.974V23.846C54.1979 23.906 54.1709 23.86 54.2109 23.968L54.1459 23.974ZM59.8359 6.59099V6.78099C59.7859 6.71599 59.7939 6.72599 59.7709 6.59599L59.8359 6.59099ZM59.2479 5.37099V5.56099L59.0539 5.51199C59.1429 5.32199 59.0309 5.41299 59.2419 5.34599L59.2479 5.37099ZM56.8559 28.528C56.9269 28.5553 56.9931 28.5938 57.0519 28.642C56.8919 28.596 56.9379 28.625 56.8559 28.528ZM57.3109 28.874V28.747L57.4409 28.8V28.863L57.3109 28.874ZM57.5069 28.859L57.8299 28.897V28.96C57.5939 28.958 57.6079 28.973 57.4999 28.86L57.5069 28.859ZM59.1269 29.114C59.0169 29.083 59.0649 29.114 58.9989 29.062C59.1049 29.093 59.0559 29.07 59.1209 29.114H59.1269ZM59.0309 29.257C59.1379 29.3 59.0939 29.27 59.1529 29.323C59.0389 29.279 59.0859 29.308 59.0249 29.257H59.0309ZM60.1789 28.903C60.2153 28.8769 60.2542 28.8544 60.2949 28.836C60.2279 28.889 60.2619 28.866 60.1729 28.903H60.1789ZM61.3279 27.81C61.4399 27.841 61.3909 27.81 61.4569 27.862C61.3389 27.829 61.3869 27.854 61.3219 27.81H61.3279ZM61.4579 28.231C61.5659 28.275 61.5199 28.246 61.5809 28.299C61.4669 28.248 61.5129 28.278 61.4519 28.225L61.4579 28.231ZM61.6529 27.854V27.725H61.7159V27.85L61.6529 27.854ZM61.8399 28.303H61.7749L61.7879 28.174H61.8509C61.8425 28.2146 61.8368 28.2557 61.8339 28.297L61.8399 28.303ZM68.3459 6.21599H68.2809V6.15299H68.2149C68.2549 6.06299 68.3069 5.97699 68.3689 5.89999C68.422 6.01799 68.3759 6.01799 68.3389 6.20999L68.3459 6.21599ZM68.4699 5.58399C68.5649 5.66599 68.7099 5.70799 68.5759 5.83899C68.5176 5.76262 68.4791 5.67293 68.4639 5.57799L68.4699 5.58399ZM68.6099 6.15699H68.6749V6.09399C68.7189 6.15899 68.6949 6.10899 68.7249 6.22099C68.7249 6.21599 68.4749 6.19699 68.6029 6.15099L68.6099 6.15699ZM69.1109 5.65999H68.9169C68.9169 5.61799 68.917 5.57599 68.9269 5.53399H69.1209L69.1109 5.65999ZM69.8059 4.46699H69.6779C69.6629 4.40399 69.646 4.34099 69.632 4.27699C69.7389 4.31999 69.6949 4.28999 69.7559 4.34299H69.8189L69.8059 4.46699ZM70.2129 4.28399C70.0659 4.22399 70.1079 4.25899 70.0319 4.15399L70.2199 4.22099L70.2129 4.28399ZM70.3429 4.91599L70.3749 4.59999C70.4869 4.70699 70.4789 4.69299 70.4749 4.91799L70.3429 4.91599ZM70.8349 5.80699C70.6249 5.71499 70.7059 5.78699 70.7229 5.61399L70.8459 5.67899L70.8349 5.80699ZM72.0719 4.36999V4.43299C72.0279 4.35799 72.0299 4.32799 72.0319 4.17799H71.9669C71.9324 4.24794 71.9164 4.32558 71.9204 4.40349C71.9244 4.4814 71.9484 4.55698 71.9899 4.62299V4.68599C71.9012 4.65515 71.8179 4.61061 71.7429 4.55399C71.7809 4.42499 71.7709 4.43399 71.8249 4.36599C71.8889 3.94399 71.9559 4.17399 72.1269 3.92799C72.1615 4.00046 72.1748 4.08129 72.165 4.161C72.1553 4.24071 72.123 4.31599 72.0719 4.37799V4.36999ZM72.2469 5.89799V5.96099H72.1839C72.2259 5.88159 72.2556 5.79629 72.2719 5.70799C72.312 5.82599 72.3139 5.80799 72.2409 5.90699L72.2469 5.89799ZM73.1429 6.67799H73.2079L73.1889 6.86799C73.1889 6.86799 73.1319 6.89299 73.1299 6.80399H73.0669L73.1429 6.67799ZM73.0649 5.46999L73.0519 5.59699C72.938 5.63499 72.9889 5.60899 72.9169 5.65699H72.8539L72.9299 5.53399C72.6299 5.66799 72.6749 5.86699 72.5589 6.03499V6.09599H72.4929C72.5609 5.36499 72.5419 5.55599 72.8309 5.27599H73.0899C73.0579 5.46999 73.0289 5.38599 73.0649 5.47899V5.46999ZM72.9909 8.26299V8.32799H72.9249C72.9433 8.23995 72.9736 8.15483 73.0149 8.07499C73.0549 8.19299 73.0559 8.16399 72.9909 8.27099V8.26299ZM73.3679 7.70399C73.2729 7.74799 73.2839 7.72399 73.1799 7.63699C73.1149 7.57699 73.1799 7.63699 73.1209 7.57099C73.2669 7.47499 73.389 7.34799 73.4799 7.19799C73.5033 7.28512 73.5054 7.37661 73.4859 7.4647C73.4664 7.55278 73.4259 7.63487 73.3679 7.70399ZM73.7049 6.88399H73.6399C73.5869 6.99399 73.6229 6.94799 73.5639 7.01099C73.505 7.07399 73.5449 7.03399 73.4289 7.07199V7.00899H73.3639L73.4649 6.63199C73.5769 6.71399 73.5619 6.75799 73.7049 6.82499V6.88399ZM71.8199 29.036C72.0299 28.984 71.9169 29.068 72.0299 28.91C72.0299 28.828 72.2579 28.621 72.1929 28.465C72.1149 28.383 72.0139 28.255 71.9449 28.339C71.8079 28.511 71.7819 28.882 71.6919 29.099H71.6279V29.036C71.5739 28.906 71.6879 28.632 71.7399 28.404H71.6099V28.341H71.5459C71.4759 28.551 71.5689 28.438 71.4009 28.531L71.4209 28.278C71.6769 28.178 71.5439 28.176 71.6329 27.961C71.4231 27.877 71.2513 27.719 71.1499 27.517C71.2849 27.494 71.2739 27.502 71.3479 27.454C71.2779 27.319 71.3349 27.279 71.3759 27.072H71.3119V27.135C71.2549 27.215 71.2049 27.301 71.1649 27.39C70.9309 27.403 71.0379 27.295 70.9539 27.517C71.2719 27.767 71.3419 28.179 71.1239 28.659H70.9959L71.0109 28.467C71.0998 28.3349 71.1554 28.1832 71.1729 28.025C71.0149 27.98 71.063 27.875 70.9829 27.961C70.9611 28.0864 70.9514 28.2137 70.9539 28.341L70.4339 28.404C70.4079 28.194 70.3009 28.224 70.2629 28.088L70.3579 27.707C70.3579 27.681 70.187 27.559 70.1759 27.517C70.1059 27.19 70.4059 26.718 70.0599 26.501C70.0499 26.722 69.9899 26.938 69.8829 27.133V27.007C69.6429 26.651 69.8639 25.643 70.0229 25.169C70.4361 23.9117 70.8119 22.6425 71.1499 21.363C71.3969 20.453 71.708 18.781 72.2039 17.751C72.1709 17.5191 72.1665 17.284 72.1909 17.051C72.4759 16.172 72.6969 14.916 73.0779 13.89C73.1479 13.553 73.2149 13.213 73.2889 12.876C73.6219 12.069 73.9209 11.091 74.1949 10.276C74.2379 10.001 74.2819 9.72599 74.3219 9.45099C74.6419 8.58899 75.1349 7.49799 75.2549 6.53499C75.3899 6.51099 75.3799 6.51999 75.4539 6.47099C75.3309 6.21099 75.9379 5.35099 76.1439 5.01299C76.2669 5.06699 76.3939 5.10899 76.5239 5.13899C76.625 4.32199 77.4299 3.77999 77.9989 3.61799V3.68099C78.0649 3.74099 77.9989 3.68099 78.0599 3.74399C77.8999 3.84999 77.9819 3.96999 77.896 4.18899H78.0259C78.2099 3.96099 78.4959 3.99699 78.7009 3.80799C78.8679 3.65399 78.8529 3.49599 79.0569 3.36499L79.0449 3.55499C78.896 3.79686 78.7682 4.05114 78.6629 4.31499C78.7349 4.47099 78.6319 4.35999 78.7829 4.44199C78.8829 4.16799 78.9939 4.23199 79.1349 4.06199L79.3779 3.48899H79.5719L79.5379 3.93399C79.4389 3.98399 79.3479 4.04799 79.2659 4.12399C79.3413 4.17073 79.4033 4.23619 79.4459 4.31399C79.3459 4.36499 79.2559 4.42899 79.1729 4.50299C79.2619 4.53399 79.3449 4.57799 79.4219 4.63199C79.3099 4.71599 79.3459 4.67199 79.2769 4.82199H79.5359C79.527 4.60984 79.5431 4.39737 79.5839 4.18899C79.7209 4.16599 79.7109 4.17399 79.7819 4.12599C79.9589 3.95099 79.8599 3.80999 80.0649 3.80999C80.486 4.18899 80.6169 4.82099 80.7259 5.33099H80.7919C80.7772 5.11444 80.8153 4.89756 80.9029 4.69899C80.9824 4.6515 81.0746 4.62951 81.1669 4.63599V4.69899H81.2299C81.243 4.82499 81.2549 4.95199 81.2659 5.07899C81.1719 5.11098 81.0819 5.15394 80.9979 5.20699C81.2599 5.32099 81.4199 5.28699 81.4199 5.64899H81.4849C81.5449 5.71499 81.4149 5.71299 81.4149 5.71299C81.2449 5.84099 81.2529 5.65999 81.1369 5.96799C81.3289 5.94199 81.2259 5.86199 81.327 6.03099C81.428 6.19999 81.3819 7.08499 81.2909 7.36099C81.1859 7.66599 80.9919 7.99299 80.8989 8.25099C80.7369 8.69699 80.7409 9.34799 80.5159 9.89799C79.8119 11.618 79.396 13.947 78.7179 15.732C78.438 16.469 78.5079 17.322 78.1069 17.824C78.1999 18.537 77.5689 20.762 77.2639 21.312L77.1119 22.452C76.7159 23.572 76.4669 24.929 76.0039 26.004C75.7539 26.585 75.7929 27.142 75.2539 27.399C75.1709 27.452 75.1919 27.422 75.0539 27.462C74.9159 27.774 74.6969 27.862 74.5439 28.222H74.6079V28.286C74.8399 28.107 75.0149 27.865 75.1119 27.588H75.1769L75.1469 27.97C75.0744 28.0382 75.0233 28.1262 74.9999 28.223C74.4229 28.518 74.1239 28.992 73.5719 29.173C73.5879 28.99 73.6389 29.087 73.5859 28.983C73.5149 29.034 73.5659 29.007 73.4509 29.047C73.4685 28.8987 73.458 28.7484 73.4199 28.604H73.2909C73.2409 28.922 73.181 29.057 72.8699 29.11L72.8799 28.984C72.9361 28.9497 72.984 28.9035 73.0205 28.8488C73.0569 28.794 73.081 28.732 73.091 28.667H73.0279V28.604H72.9619C72.9309 28.864 72.9349 28.893 72.7419 28.984V29.047H72.6629V28.92C72.889 28.659 73.0659 28.358 73.1829 28.033H73.1179C73.0209 28.178 73.0319 28.149 72.9789 28.16C72.7919 27.881 73.0019 27.664 73.1709 27.335H73.1079C72.9789 27.508 72.722 27.599 72.6209 27.778C72.4109 28.145 72.4839 29.23 71.8609 29.3V29.236H71.7949L71.8199 29.036ZM81.0099 6.71799V6.58899C80.82 6.58899 80.9229 6.52899 80.8159 6.58899H80.7509C80.8109 6.64199 80.7649 6.61299 80.8749 6.65499C80.9469 6.70499 80.8999 6.67499 81.0099 6.71799ZM80.91 7.16099C80.873 6.94999 80.9499 7.06399 80.7969 6.97099L80.7819 7.16099H80.91ZM81.0299 5.57599L81.0409 5.44899H80.9109V5.51199L81.0299 5.57599ZM80.8449 4.62599C80.6869 4.53299 80.77 4.63799 80.7299 4.43599H80.7949V4.36999C80.9049 4.40999 80.8559 4.38299 80.9189 4.43599C81.0729 4.51599 80.9659 4.40799 81.0389 4.56199C80.9069 4.58499 80.9169 4.57699 80.8449 4.62499V4.62599ZM80.799 4.36999H80.6729V4.24399H80.8029L80.799 4.36999ZM80.5419 5.19599C80.5632 5.02649 80.5547 4.85458 80.5169 4.68799C80.4179 4.7714 80.3447 4.88138 80.3059 5.00499H80.3689C80.422 5.18799 80.3649 5.12299 80.5419 5.19599ZM80.3319 5.38599V5.25999H80.202L80.1919 5.38599H80.3319ZM80.2169 6.01799L80.2509 5.63799H80.1229L80.0929 6.01799H80.2169ZM80.0399 4.24399H80.1039L80.1769 4.11699H80.1139C80.1139 4.02899 80.0529 4.05399 80.0529 4.05399L80.0399 4.24399ZM79.9809 5.00399C79.9809 4.92399 80.1159 4.88699 79.9959 4.81399C79.9959 4.74699 79.8609 4.98999 79.8529 5.00399H79.9809ZM77.9329 4.75399V4.62699H77.8679V4.75399H77.9329ZM77.4989 4.49899L77.577 4.30899H77.4479C77.4569 4.43899 77.4479 4.42899 77.4919 4.49699L77.4989 4.49899ZM77.0189 4.87999L77.1759 4.49899H77.1109C76.9709 4.69699 76.8559 4.71599 77.0109 4.87899L77.0189 4.87999ZM76.1749 5.82999C76.2449 5.69199 76.2379 5.73999 76.3209 5.64099H76.1269L76.0509 5.76799L76.1749 5.82999ZM74.0449 28.72L74.1249 28.53H73.9959L73.9859 28.657L73.9159 28.72H74.0449ZM75.5799 7.54199L75.6559 7.41299C75.5359 7.49299 75.5799 7.54199 75.5799 7.54199ZM73.7759 28.847C73.8029 28.758 73.6919 28.754 73.6559 28.72C73.6059 28.78 73.7589 28.828 73.7759 28.847ZM73.2959 28.339V28.212H73.2319C73.2739 28.324 73.2499 28.273 73.2959 28.339ZM73.3379 27.768L73.3479 27.641H73.2949C73.3189 27.753 73.2949 27.704 73.3399 27.768H73.3379ZM73.1519 28.53V28.402H73.0869C73.1309 28.514 73.1059 28.465 73.1539 28.53H73.1519ZM72.8569 28.149H72.7279V28.086C72.8439 28.126 72.7959 28.098 72.8589 28.146L72.8569 28.149ZM72.1509 28.086V27.959H72.0879C72.1299 28.069 72.1049 28.021 72.1529 28.086H72.1509ZM72.8089 16.798C72.8309 16.6911 72.8169 16.58 72.7689 16.482C72.7474 16.5994 72.6942 16.7087 72.6149 16.798H72.8089ZM72.6419 17.306L72.7219 17.116C72.5299 17.188 72.5469 17.159 72.6439 17.306H72.6419ZM71.6559 26.943C71.5929 26.893 71.6389 26.923 71.5309 26.88C71.5949 26.93 71.5479 26.903 71.6579 26.943H71.6559ZM71.5739 26.311L71.5839 26.185H71.5189L71.5089 26.311H71.5739ZM72.077 19.654V19.527H72.0309C72.0559 19.637 72.0309 19.587 72.0789 19.652L72.077 19.654ZM71.4109 26.756L71.4309 26.503H71.3649C71.3519 26.724 71.2649 26.611 71.4129 26.753L71.4109 26.756ZM71.4509 21.936L71.4609 21.81H71.3999V21.936H71.452H71.4509ZM70.4669 28.146C70.4669 27.999 70.4669 27.968 70.4209 27.892C70.4229 28.044 70.4209 28.075 70.4669 28.147V28.146ZM70.5619 26.882L70.5719 26.756H70.507V26.882H70.5619ZM70.2479 25.932C70.4579 25.879 70.3429 25.962 70.4579 25.805C70.4119 25.74 70.4379 25.787 70.4039 25.677H70.3389V25.74C70.2729 25.808 70.2819 25.8 70.2479 25.93V25.932ZM70.2729 26.438C70.36 26.286 70.4149 26.328 70.3579 26.185L70.3069 25.995H70.2419L70.2079 26.438H70.2729Z" fill="#14004B"/>
</svg>
